# xmcd
#
# Track frame offsets:
#	150
#	11426
#	23975
#	40327
#	61617
#	75066
#	91091
#	108890
#	129261
#	146121
#
# Disc length: 2098
#
# Revision: 1
# Processed by: cddbd v1.5.1PL0 Copyright (c) Steve Scherf et al.
# Submitted via: CDex 1.51
# Normalized: r0:TDELIM( - )
#
DISCID=6808300a
DTITLE=Variés - Radio Country Vol. 5
DYEAR=1900
DGENRE=Country
TTITLE0=Conrad Stéphane - L'enfant de la débauche
TTITLE1=André Brazeau - Au camping
TTITLE2=Dany Jeffrey - Danser sur du country
TTITLE3=Dani Daraîche - Mimi Yankee
TTITLE4=Georges Hamel - Accroche-toi à mon coeur
TTITLE5=Julie Daraîche - L'hôtel
TTITLE6=Édouard Castonguay - Mon amie l'hirondelle
TTITLE7=Paul Daraîche - Y a que toi
TTITLE8=Les frères Gagné - Prière d'un enfant
TTITLE9=Sandra - Souvenir d'un vieillard
EXTD=
EXTT0=
EXTT1=
EXTT2=
EXTT3=
EXTT4=
EXTT5=
EXTT6=
EXTT7=
EXTT8=
EXTT9=
PLAYORDER=
